# xmcd
#
# Track frame offsets:
# 150
# 12578
# 27736
# 40860
# 53956
# 68529
# 80231
# 94080
# 109349
# 118767
# 135263
# 152371
# 165439
# 174300
# 187368
# 199406
# 213700
# 233650
# 246133
# 256387
# 271322
# 286598
# 298768
# 312895
#
# Disc length: 4282 seconds
#
#
# Revision: 0
# Processed by: cddbd v1.5.2PL0 Copyright (c) Steve Scherf et al.
# Submitted via: FreeRIP 2.945 
#
DISCID=6010b818
DTITLE=Herriot-J1992 - Every-Living-Thing02
DYEAR=1992
DGENRE=Jungle
TTITLE0=ELT 0201
TTITLE1=ELT 0202
TTITLE2=ELT 0203
TTITLE3=ELT 0204
TTITLE4=ELT 0205
TTITLE5=ELT 0206
TTITLE6=ELT 0207
TTITLE7=ELT 0208
TTITLE8=ELT 0209
TTITLE9=ELT 0210
TTITLE10=ELT 0211
TTITLE11=ELT 0212
TTITLE12=ELT 0213
TTITLE13=ELT 0214
TTITLE14=ELT 0215
TTITLE15=ELT 0216
TTITLE16=ELT 0217
TTITLE17=ELT 0218
TTITLE18=ELT 0219
TTITLE19=ELT 0220
TTITLE20=ELT 0221
TTITLE21=ELT 0222
TTITLE22=ELT 0223
TTITLE23=ELT 0224
EXTD=Every Living Thing by James Herriot 10 CDs\nread by Christopher Timothy BBC Audiobooks\njungle country
EXTT0=
EXTT1=
EXTT2=
EXTT3=
EXTT4=
EXTT5=
EXTT6=
EXTT7=
EXTT8=
EXTT9=
EXTT10=
EXTT11=
EXTT12=
EXTT13=
EXTT14=
EXTT15=
EXTT16=
EXTT17=
EXTT18=
EXTT19=
EXTT20=
EXTT21=
EXTT22=
EXTT23=
PLAYORDER=
